<svg data-v-fde0c5aa="" xmlns="http://www.w3.org/2000/svg" viewBox="0 0 300 300" class="iconLeftSlogan"><!----><defs data-v-fde0c5aa=""><!----></defs><rect data-v-fde0c5aa="" fill="transparent" x="0" y="0" width="300px" height="300px" class="logo-background-square"></rect><defs data-v-fde0c5aa=""><!----></defs><g data-v-fde0c5aa="" id="8c9c7f1f-9cb5-4c41-aaee-c17bdd1fd78a" fill="#000000" transform="matrix(1.8284596020116524,0,0,1.8284596020116524,93.92100882157835,125.83857971979285)"><path d="M4.89 13.00L0.53 13.00L0.53 12.41L0.71 12.41Q0.95 12.41 1.16 12.37Q1.37 12.34 1.52 12.23Q1.68 12.13 1.77 11.93Q1.86 11.73 1.86 11.40L1.86 11.40L1.86 4.54Q1.86 4.23 1.77 4.04Q1.67 3.86 1.52 3.75Q1.36 3.65 1.15 3.62Q0.94 3.59 0.71 3.59L0.71 3.59L0.53 3.59L0.53 3.00L4.46 3.00Q5.35 3.00 6.00 3.20Q6.64 3.40 7.07 3.78Q7.49 4.16 7.70 4.70Q7.91 5.24 7.91 5.93L7.91 5.93Q7.91 6.55 7.71 7.12Q7.52 7.70 7.08 8.14Q6.63 8.58 5.91 8.84Q5.20 9.11 4.16 9.11L4.16 9.11L3.27 9.11L3.27 11.47Q3.27 11.78 3.37 11.97Q3.46 12.15 3.62 12.25Q3.77 12.35 3.98 12.38Q4.19 12.41 4.42 12.41L4.42 12.41L4.89 12.41L4.89 13.00ZM3.27 3.67L3.27 8.44L4.02 8.44Q4.66 8.44 5.11 8.31Q5.56 8.18 5.84 7.88Q6.13 7.58 6.27 7.11Q6.40 6.64 6.40 5.98L6.40 5.98Q6.40 5.39 6.28 4.96Q6.17 4.53 5.91 4.24Q5.65 3.95 5.23 3.81Q4.82 3.67 4.22 3.67L4.22 3.67L3.27 3.67ZM12.43 12.41L12.48 12.41L12.48 13.00L8.71 13.00L8.71 12.41L8.82 12.41Q9.06 12.41 9.27 12.37Q9.47 12.34 9.63 12.23Q9.78 12.13 9.87 11.93Q9.97 11.73 9.97 11.40L9.97 11.40L9.97 3.90Q9.97 3.59 9.87 3.40Q9.78 3.21 9.63 3.11Q9.47 3.01 9.26 2.98Q9.05 2.95 8.82 2.95L8.82 2.95L8.71 2.95L8.71 2.36L11.29 2.36L11.29 5.43Q11.29 5.63 11.28 5.83Q11.27 6.04 11.26 6.22L11.26 6.22Q11.25 6.43 11.23 6.62L11.23 6.62L11.30 6.62Q11.93 5.35 13.36 5.35L13.36 5.35Q13.95 5.35 14.41 5.51Q14.88 5.67 15.19 6.01Q15.50 6.34 15.67 6.86Q15.83 7.38 15.83 8.09L15.83 8.09L15.83 11.40Q15.83 11.73 15.91 11.93Q16.00 12.13 16.14 12.23Q16.28 12.34 16.48 12.37Q16.68 12.41 16.91 12.41L16.91 12.41L16.95 12.41L16.95 13.00L14.52 13.00L14.52 8.16Q14.52 7.70 14.44 7.35Q14.36 6.99 14.17 6.75Q13.99 6.50 13.70 6.37Q13.41 6.25 12.98 6.25L12.98 6.25Q12.54 6.25 12.23 6.41Q11.91 6.57 11.70 6.87Q11.49 7.16 11.39 7.58Q11.29 8.00 11.29 8.52L11.29 8.52L11.29 11.47Q11.29 11.78 11.38 11.97Q11.47 12.15 11.63 12.25Q11.79 12.35 11.99 12.38Q12.20 12.41 12.43 12.41L12.43 12.41ZM21.85 12.41L21.85 13.00L17.81 13.00L17.81 12.41L17.85 12.41Q18.09 12.41 18.30 12.37Q18.50 12.34 18.66 12.23Q18.81 12.13 18.90 11.93Q19.00 11.73 19.00 11.40L19.00 11.40L19.00 7.03Q19.00 6.73 18.90 6.54Q18.81 6.35 18.66 6.25Q18.50 6.15 18.29 6.11Q18.08 6.08 17.85 6.08L17.85 6.08L17.81 6.08L17.81 5.49L19.96 5.49L20.23 6.88L20.30 6.88Q20.43 6.56 20.58 6.29Q20.72 6.01 20.93 5.80Q21.14 5.59 21.44 5.47Q21.75 5.35 22.22 5.35L22.22 5.35Q22.98 5.35 23.35 5.62Q23.73 5.89 23.73 6.37L23.73 6.37Q23.73 6.59 23.66 6.77Q23.58 6.96 23.43 7.09Q23.27 7.23 23.02 7.30Q22.78 7.37 22.42 7.37L22.42 7.37Q22.42 6.79 22.26 6.53Q22.09 6.28 21.68 6.28L21.68 6.28Q21.42 6.28 21.22 6.42Q21.01 6.57 20.86 6.81Q20.71 7.05 20.60 7.37Q20.49 7.68 20.43 8.02Q20.36 8.35 20.34 8.67Q20.31 9.00 20.31 9.27L20.31 9.27L20.31 11.47Q20.31 11.78 20.40 11.97Q20.49 12.15 20.65 12.25Q20.81 12.35 21.02 12.38Q21.23 12.41 21.46 12.41L21.46 12.41L21.85 12.41ZM25.72 10.96L25.72 10.96Q25.72 11.62 25.99 11.95Q26.27 12.27 26.85 12.27L26.85 12.27Q27.28 12.27 27.62 12.13Q27.97 12.00 28.21 11.74Q28.45 11.49 28.58 11.13Q28.71 10.77 28.71 10.32L28.71 10.32L28.71 9.19L27.82 9.23Q27.22 9.26 26.82 9.38Q26.42 9.50 26.17 9.71Q25.93 9.93 25.82 10.24Q25.72 10.55 25.72 10.96ZM27.41 6.05L27.41 6.05Q27.01 6.05 26.76 6.16Q26.51 6.28 26.37 6.48Q26.23 6.69 26.18 6.97Q26.13 7.25 26.13 7.57L26.13 7.57Q25.55 7.57 25.25 7.38Q24.94 7.18 24.94 6.69L24.94 6.69Q24.94 6.33 25.14 6.08Q25.34 5.82 25.69 5.66Q26.03 5.50 26.49 5.43Q26.95 5.35 27.47 5.35L27.47 5.35Q28.11 5.35 28.59 5.48Q29.07 5.61 29.39 5.89Q29.71 6.18 29.87 6.64Q30.03 7.10 30.03 7.77L30.03 7.77L30.03 11.40Q30.03 11.70 30.08 11.89Q30.13 12.08 30.23 12.20Q30.33 12.31 30.50 12.36Q30.67 12.41 30.90 12.41L30.90 12.41L30.94 12.41L30.94 13.00L29.05 13.00L28.83 11.79L28.71 11.79Q28.49 12.09 28.29 12.33Q28.08 12.58 27.84 12.76Q27.59 12.93 27.28 13.03Q26.97 13.13 26.53 13.13L26.53 13.13Q26.07 13.13 25.67 13.00Q25.27 12.87 24.98 12.59Q24.68 12.31 24.52 11.89Q24.36 11.47 24.36 10.90L24.36 10.90Q24.36 9.78 25.15 9.24Q25.94 8.70 27.55 8.65L27.55 8.65L28.71 8.61L28.71 7.77Q28.71 7.40 28.67 7.08Q28.63 6.76 28.49 6.53Q28.36 6.30 28.10 6.18Q27.84 6.05 27.41 6.05ZM34.48 13.13L34.48 13.13Q33.95 13.13 33.53 13.04Q33.10 12.95 32.80 12.76Q32.50 12.57 32.33 12.29Q32.17 12.02 32.17 11.65L32.17 11.65Q32.17 11.37 32.26 11.18Q32.35 10.99 32.49 10.88Q32.62 10.77 32.77 10.73Q32.93 10.68 33.05 10.68L33.05 10.68Q33.05 11.05 33.13 11.38Q33.20 11.70 33.38 11.94Q33.56 12.18 33.85 12.32Q34.14 12.46 34.56 12.46L34.56 12.46Q34.94 12.46 35.23 12.37Q35.51 12.28 35.71 12.11Q35.90 11.94 36.00 11.71Q36.11 11.47 36.11 11.19L36.11 11.19Q36.11 10.93 36.03 10.74Q35.95 10.55 35.76 10.39Q35.56 10.23 35.23 10.06Q34.89 9.88 34.38 9.67L34.38 9.67Q33.84 9.43 33.44 9.20Q33.04 8.98 32.79 8.72Q32.53 8.46 32.40 8.13Q32.27 7.80 32.27 7.34L32.27 7.34Q32.27 6.86 32.45 6.49Q32.64 6.13 32.99 5.88Q33.34 5.63 33.82 5.50Q34.31 5.37 34.90 5.37L34.90 5.37Q35.40 5.37 35.79 5.47Q36.17 5.57 36.43 5.75Q36.69 5.92 36.82 6.16Q36.95 6.39 36.95 6.65L36.95 6.65Q36.95 7.03 36.69 7.26Q36.42 7.49 35.94 7.49L35.94 7.49Q35.94 6.79 35.65 6.40Q35.36 6.01 34.73 6.01L34.73 6.01Q34.38 6.01 34.13 6.09Q33.87 6.17 33.71 6.32Q33.55 6.47 33.48 6.68Q33.40 6.88 33.40 7.13L33.40 7.13Q33.40 7.40 33.50 7.59Q33.59 7.79 33.80 7.95Q34.01 8.11 34.34 8.27Q34.67 8.42 35.14 8.61L35.14 8.61Q35.69 8.85 36.09 9.07Q36.48 9.30 36.74 9.56Q37.00 9.83 37.12 10.17Q37.24 10.50 37.24 10.94L37.24 10.94Q37.24 11.48 37.04 11.89Q36.85 12.30 36.48 12.58Q36.12 12.86 35.61 13.00Q35.10 13.13 34.48 13.13ZM41.71 6.10L41.71 6.10Q40.93 6.10 40.51 6.74Q40.09 7.37 40.01 8.59L40.01 8.59L43.23 8.59Q43.23 8.03 43.15 7.57Q43.07 7.12 42.89 6.79Q42.71 6.46 42.42 6.28Q42.13 6.10 41.71 6.10ZM41.88 13.13L41.88 13.13Q41.12 13.13 40.51 12.88Q39.91 12.62 39.49 12.13Q39.07 11.63 38.85 10.92Q38.63 10.21 38.63 9.30L38.63 9.30Q38.63 7.33 39.44 6.34Q40.24 5.35 41.73 5.35L41.73 5.35Q42.41 5.35 42.95 5.56Q43.49 5.78 43.87 6.20Q44.24 6.62 44.44 7.24Q44.65 7.87 44.65 8.70L44.65 8.70L44.65 9.34L39.98 9.34Q40.00 10.10 40.14 10.65Q40.28 11.20 40.54 11.56Q40.80 11.92 41.19 12.08Q41.57 12.25 42.07 12.25L42.07 12.25Q42.43 12.25 42.74 12.17Q43.05 12.09 43.31 11.95Q43.56 11.81 43.75 11.64Q43.95 11.46 44.07 11.27L44.07 11.27Q44.17 11.31 44.25 11.44Q44.34 11.57 44.34 11.75L44.34 11.75Q44.34 11.96 44.19 12.21Q44.04 12.45 43.73 12.65Q43.42 12.86 42.96 13.00Q42.50 13.13 41.88 13.13ZM53.39 13.00L45.88 13.00L45.88 12.41L46.06 12.41Q46.30 12.41 46.51 12.37Q46.72 12.34 46.87 12.23Q47.03 12.13 47.12 11.93Q47.21 11.73 47.21 11.40L47.21 11.40L47.21 4.59Q47.21 4.27 47.12 4.07Q47.03 3.87 46.87 3.76Q46.72 3.66 46.51 3.62Q46.30 3.59 46.06 3.59L46.06 3.59L45.88 3.59L45.88 3.00L49.96 3.00L49.96 3.59L49.77 3.59Q49.54 3.59 49.33 3.62Q49.12 3.65 48.97 3.75Q48.81 3.86 48.72 4.04Q48.62 4.23 48.62 4.54L48.62 4.54L48.62 12.30L51.39 12.30Q51.70 12.30 51.92 12.19Q52.14 12.07 52.29 11.89Q52.43 11.71 52.51 11.48Q52.59 11.26 52.62 11.03L52.62 11.03L52.75 9.99L53.48 9.99L53.39 13.00ZM61.38 9.23L61.38 9.23Q61.38 11.20 60.54 12.17Q59.71 13.13 58.09 13.13L58.09 13.13Q57.33 13.13 56.73 12.89Q56.13 12.65 55.71 12.17Q55.29 11.68 55.07 10.95Q54.84 10.21 54.84 9.23L54.84 9.23Q54.84 7.27 55.68 6.31Q56.51 5.35 58.13 5.35L58.13 5.35Q58.89 5.35 59.49 5.59Q60.09 5.82 60.52 6.31Q60.94 6.79 61.16 7.52Q61.38 8.24 61.38 9.23ZM56.20 9.23L56.20 9.23Q56.20 10.01 56.30 10.60Q56.40 11.20 56.63 11.60Q56.86 12.00 57.23 12.20Q57.59 12.41 58.12 12.41L58.12 12.41Q58.65 12.41 59.01 12.20Q59.37 12.00 59.60 11.60Q59.82 11.20 59.92 10.60Q60.02 10.01 60.02 9.23L60.02 9.23Q60.02 8.45 59.92 7.86Q59.81 7.27 59.59 6.88Q59.36 6.49 59.00 6.29Q58.63 6.09 58.11 6.09L58.11 6.09Q57.58 6.09 57.22 6.29Q56.85 6.49 56.63 6.88Q56.40 7.27 56.30 7.86Q56.20 8.45 56.20 9.23ZM66.12 13.13L66.12 13.13Q65.42 13.13 64.83 12.92Q64.24 12.70 63.82 12.24Q63.40 11.77 63.16 11.04Q62.92 10.32 62.92 9.28L62.92 9.28Q62.92 8.16 63.16 7.41Q63.40 6.65 63.82 6.19Q64.24 5.74 64.81 5.54Q65.38 5.35 66.04 5.35L66.04 5.35Q66.48 5.35 66.91 5.44Q67.35 5.52 67.70 5.70Q68.04 5.88 68.26 6.15Q68.48 6.42 68.48 6.78L68.48 6.78Q68.48 7.27 68.17 7.46Q67.85 7.66 67.23 7.66L67.23 7.66Q67.23 7.33 67.18 7.04Q67.12 6.75 66.99 6.52Q66.86 6.30 66.63 6.18Q66.40 6.05 66.04 6.05L66.04 6.05Q65.64 6.05 65.31 6.20Q64.99 6.35 64.76 6.72Q64.52 7.09 64.40 7.71Q64.28 8.33 64.28 9.27L64.28 9.27Q64.28 10.76 64.77 11.49Q65.27 12.22 66.40 12.22L66.40 12.22Q67.05 12.22 67.53 11.95Q68.02 11.68 68.26 11.25L68.26 11.25Q68.36 11.33 68.43 11.46Q68.50 11.60 68.50 11.79L68.50 11.79Q68.50 12.03 68.35 12.27Q68.20 12.51 67.90 12.70Q67.60 12.89 67.16 13.01Q66.71 13.13 66.12 13.13ZM74.77 7.38L73.79 8.49L75.65 11.26Q76.02 11.82 76.37 12.11Q76.73 12.41 77.21 12.41L77.21 12.41L77.25 12.41L77.25 13.00L77.05 13.00Q76.44 13.00 76.05 12.96Q75.65 12.92 75.37 12.78Q75.08 12.64 74.84 12.37Q74.60 12.10 74.31 11.63L74.31 11.63L72.91 9.44L71.87 10.21L71.87 11.47Q71.87 11.78 71.97 11.97Q72.06 12.15 72.21 12.25Q72.37 12.35 72.58 12.38Q72.79 12.41 73.02 12.41L73.02 12.41L73.06 12.41L73.06 13.00L69.30 13.00L69.30 12.41L69.41 12.41Q69.64 12.41 69.85 12.37Q70.06 12.34 70.22 12.23Q70.37 12.13 70.46 11.93Q70.55 11.73 70.55 11.40L70.55 11.40L70.55 3.90Q70.55 3.59 70.46 3.40Q70.37 3.21 70.21 3.11Q70.05 3.01 69.85 2.98Q69.64 2.95 69.41 2.95L69.41 2.95L69.30 2.95L69.30 2.36L71.87 2.36L71.87 7.76Q71.87 7.95 71.87 8.25Q71.86 8.54 71.85 8.83L71.85 8.83Q71.83 9.16 71.82 9.52L71.82 9.52L73.57 7.61Q73.79 7.36 73.94 7.16Q74.09 6.97 74.18 6.83Q74.27 6.69 74.30 6.57Q74.33 6.46 74.33 6.36L74.33 6.36Q74.33 6.18 74.17 6.13Q74.00 6.08 73.65 6.08L73.65 6.08L73.65 5.49L76.74 5.49L76.74 6.08Q76.25 6.08 75.79 6.42Q75.32 6.76 74.77 7.38L74.77 7.38ZM80.80 6.10L80.80 6.10Q80.02 6.10 79.60 6.74Q79.18 7.37 79.11 8.59L79.11 8.59L82.33 8.59Q82.33 8.03 82.24 7.57Q82.16 7.12 81.98 6.79Q81.81 6.46 81.52 6.28Q81.22 6.10 80.80 6.10ZM80.97 13.13L80.97 13.13Q80.21 13.13 79.61 12.88Q79.00 12.62 78.59 12.13Q78.17 11.63 77.95 10.92Q77.72 10.21 77.72 9.30L77.72 9.30Q77.72 7.33 78.53 6.34Q79.34 5.35 80.83 5.35L80.83 5.35Q81.50 5.35 82.04 5.56Q82.58 5.78 82.96 6.20Q83.34 6.62 83.54 7.24Q83.74 7.87 83.74 8.70L83.74 8.70L83.74 9.34L79.08 9.34Q79.09 10.10 79.23 10.65Q79.37 11.20 79.64 11.56Q79.90 11.92 80.28 12.08Q80.66 12.25 81.16 12.25L81.16 12.25Q81.53 12.25 81.84 12.17Q82.15 12.09 82.40 11.95Q82.65 11.81 82.85 11.64Q83.04 11.46 83.17 11.27L83.17 11.27Q83.26 11.31 83.35 11.44Q83.43 11.57 83.43 11.75L83.43 11.75Q83.43 11.96 83.28 12.21Q83.13 12.45 82.82 12.65Q82.52 12.86 82.06 13.00Q81.59 13.13 80.97 13.13ZM88.95 12.41L88.95 13.00L84.91 13.00L84.91 12.41L84.95 12.41Q85.19 12.41 85.40 12.37Q85.61 12.34 85.76 12.23Q85.91 12.13 86.01 11.93Q86.10 11.73 86.10 11.40L86.10 11.40L86.10 7.03Q86.10 6.73 86.01 6.54Q85.91 6.35 85.76 6.25Q85.60 6.15 85.39 6.11Q85.18 6.08 84.95 6.08L84.95 6.08L84.91 6.08L84.91 5.49L87.06 5.49L87.33 6.88L87.40 6.88Q87.53 6.56 87.68 6.29Q87.82 6.01 88.03 5.80Q88.24 5.59 88.55 5.47Q88.85 5.35 89.32 5.35L89.32 5.35Q90.08 5.35 90.46 5.62Q90.83 5.89 90.83 6.37L90.83 6.37Q90.83 6.59 90.76 6.77Q90.69 6.96 90.53 7.09Q90.37 7.23 90.13 7.30Q89.88 7.37 89.52 7.37L89.52 7.37Q89.52 6.79 89.36 6.53Q89.20 6.28 88.79 6.28L88.79 6.28Q88.53 6.28 88.32 6.42Q88.12 6.57 87.96 6.81Q87.81 7.05 87.70 7.37Q87.60 7.68 87.53 8.02Q87.47 8.35 87.44 8.67Q87.41 9.00 87.41 9.27L87.41 9.27L87.41 11.47Q87.41 11.78 87.50 11.97Q87.60 12.15 87.75 12.25Q87.91 12.35 88.12 12.38Q88.33 12.41 88.56 12.41L88.56 12.41L88.95 12.41Z"></path></g><defs data-v-fde0c5aa=""><!----></defs><g data-v-fde0c5aa="" id="4b7c7f83-b200-4026-8c62-d86620fca3c9" stroke="none" fill="#0D7CE9" transform="matrix(1.3090653861978716,0,0,1.3090653861978716,40,129.05495382083404)"><path d="M16 32c8.837 0 16-7.163 16-16S24.837 0 16 0 0 7.163 0 16s7.163 16 16 16zM14.817 6.421h2v8.886h8.887v2H14.817V6.421zm-5.959.437h2v14.283h14.283v2H8.858V6.858z"></path></g><defs data-v-fde0c5aa=""><!----></defs><g data-v-fde0c5aa="" id="f12bb38a-6ce7-49e1-9de4-bc8a8b6132e2" fill="#000000" transform="matrix(0.41102791926266885,0,0,0.41102791926266885,94.63114477115634,158.3501137060993)"><path d="M4.31 3.64Q6.92 3.64 7.80 5.68L7.80 5.68L7.20 6.17Q6.85 5.18 6.15 4.73Q5.46 4.28 4.33 4.28L4.33 4.28Q3.51 4.28 2.91 4.54Q2.31 4.79 2.00 5.22Q1.68 5.66 1.68 6.20L1.68 6.20Q1.68 6.73 1.95 7.08Q2.21 7.43 2.85 7.68Q3.49 7.92 4.61 8.12L4.61 8.12Q6.41 8.43 7.17 9.02Q7.92 9.60 7.92 10.64L7.92 10.64Q7.92 11.38 7.49 11.96Q7.06 12.53 6.27 12.84Q5.47 13.16 4.45 13.16L4.45 13.16Q3.00 13.16 2.00 12.58Q0.99 12.00 0.63 10.95L0.63 10.95L1.25 10.47Q1.53 11.47 2.37 11.99Q3.22 12.52 4.47 12.52L4.47 12.52Q5.67 12.52 6.43 12.03Q7.20 11.54 7.20 10.68L7.20 10.68Q7.20 9.94 6.57 9.51Q5.95 9.07 4.41 8.81L4.41 8.81Q3.11 8.58 2.35 8.26Q1.60 7.94 1.27 7.46Q0.94 6.99 0.94 6.27L0.94 6.27Q0.94 5.56 1.35 4.96Q1.76 4.35 2.53 4.00Q3.29 3.64 4.31 3.64L4.31 3.64ZM23.00 3.78L23.00 4.42L19.63 4.42L19.63 13.02L18.93 13.02L18.93 4.42L15.55 4.42L15.55 3.78L23.00 3.78ZM34.94 3.64Q36.25 3.64 37.21 4.22Q38.16 4.80 38.68 5.87Q39.20 6.94 39.20 8.40L39.20 8.40Q39.20 9.86 38.68 10.93Q38.16 12.00 37.21 12.58Q36.25 13.16 34.94 13.16L34.94 13.16Q33.64 13.16 32.68 12.58Q31.72 12.00 31.21 10.93Q30.69 9.86 30.69 8.40L30.69 8.40Q30.69 6.94 31.21 5.87Q31.72 4.80 32.68 4.22Q33.64 3.64 34.94 3.64L34.94 3.64ZM34.94 4.28Q33.87 4.28 33.08 4.78Q32.28 5.28 31.86 6.21Q31.43 7.14 31.43 8.40L31.43 8.40Q31.43 9.66 31.86 10.59Q32.28 11.52 33.08 12.02Q33.87 12.52 34.94 12.52L34.94 12.52Q36.02 12.52 36.82 12.02Q37.62 11.52 38.05 10.59Q38.47 9.66 38.47 8.40L38.47 8.40Q38.47 7.14 38.05 6.21Q37.62 5.28 36.82 4.78Q36.02 4.28 34.94 4.28L34.94 4.28ZM55.47 13.02L54.64 13.02L52.00 9.02L51.95 9.02L49.22 9.02L49.22 13.02L48.52 13.02L48.52 3.78L51.95 3.78Q53.34 3.78 54.16 4.48Q54.98 5.18 54.98 6.40L54.98 6.40Q54.98 7.41 54.39 8.07Q53.80 8.74 52.78 8.93L52.78 8.93L55.47 13.02ZM49.22 4.42L49.22 8.36L51.94 8.36Q53.06 8.36 53.66 7.85Q54.25 7.35 54.25 6.40L54.25 6.40Q54.25 5.45 53.66 4.93Q53.06 4.42 51.94 4.42L51.94 4.42L49.22 4.42ZM65.18 12.38L71.02 12.38L71.02 13.02L64.48 13.02L64.48 3.78L70.80 3.78L70.80 4.42L65.18 4.42L65.18 7.99L69.62 7.99L69.62 8.65L65.18 8.65L65.18 12.38ZM96.89 3.78L93.62 9.42L93.62 13.02L92.92 13.02L92.92 9.42L89.64 3.78L90.47 3.78L93.27 8.69L96.07 3.78L96.89 3.78ZM108.86 3.64Q110.17 3.64 111.13 4.22Q112.08 4.80 112.60 5.87Q113.12 6.94 113.12 8.40L113.12 8.40Q113.12 9.86 112.60 10.93Q112.08 12.00 111.13 12.58Q110.17 13.16 108.86 13.16L108.86 13.16Q107.56 13.16 106.60 12.58Q105.64 12.00 105.13 10.93Q104.61 9.86 104.61 8.40L104.61 8.40Q104.61 6.94 105.13 5.87Q105.64 4.80 106.60 4.22Q107.56 3.64 108.86 3.64L108.86 3.64ZM108.86 4.28Q107.79 4.28 107.00 4.78Q106.20 5.28 105.78 6.21Q105.35 7.14 105.35 8.40L105.35 8.40Q105.35 9.66 105.78 10.59Q106.20 11.52 107.00 12.02Q107.79 12.52 108.86 12.52L108.86 12.52Q109.94 12.52 110.74 12.02Q111.54 11.52 111.97 10.59Q112.39 9.66 112.39 8.40L112.39 8.40Q112.39 7.14 111.97 6.21Q111.54 5.28 110.74 4.78Q109.94 4.28 108.86 4.28L108.86 4.28ZM129.46 3.78L129.46 9.65Q129.46 11.35 128.53 12.26Q127.61 13.16 125.90 13.16L125.90 13.16Q124.19 13.16 123.26 12.26Q122.33 11.35 122.33 9.65L122.33 9.65L122.33 3.78L123.03 3.78L123.03 9.51Q123.03 10.99 123.76 11.75Q124.49 12.52 125.90 12.52L125.90 12.52Q127.30 12.52 128.03 11.75Q128.76 10.99 128.76 9.51L128.76 9.51L128.76 3.78L129.46 3.78ZM146.20 13.02L145.38 13.02L142.73 9.02L142.69 9.02L139.96 9.02L139.96 13.02L139.26 13.02L139.26 3.78L142.69 3.78Q144.07 3.78 144.89 4.48Q145.71 5.18 145.71 6.40L145.71 6.40Q145.71 7.41 145.12 8.07Q144.54 8.74 143.51 8.93L143.51 8.93L146.20 13.02ZM139.96 4.42L139.96 8.36L142.67 8.36Q143.79 8.36 144.39 7.85Q144.98 7.35 144.98 6.40L144.98 6.40Q144.98 5.45 144.39 4.93Q143.79 4.42 142.67 4.42L142.67 4.42L139.96 4.42ZM169.46 3.64Q172.06 3.64 172.94 5.68L172.94 5.68L172.34 6.17Q171.99 5.18 171.30 4.73Q170.60 4.28 169.47 4.28L169.47 4.28Q168.66 4.28 168.06 4.54Q167.45 4.79 167.14 5.22Q166.82 5.66 166.82 6.20L166.82 6.20Q166.82 6.73 167.09 7.08Q167.36 7.43 167.99 7.68Q168.63 7.92 169.75 8.12L169.75 8.12Q171.56 8.43 172.31 9.02Q173.07 9.60 173.07 10.64L173.07 10.64Q173.07 11.38 172.63 11.96Q172.20 12.53 171.41 12.84Q170.62 13.16 169.60 13.16L169.60 13.16Q168.14 13.16 167.14 12.58Q166.14 12.00 165.77 10.95L165.77 10.95L166.39 10.47Q166.67 11.47 167.52 11.99Q168.36 12.52 169.61 12.52L169.61 12.52Q170.81 12.52 171.58 12.03Q172.34 11.54 172.34 10.68L172.34 10.68Q172.34 9.94 171.72 9.51Q171.09 9.07 169.55 8.81L169.55 8.81Q168.25 8.58 167.50 8.26Q166.74 7.94 166.41 7.46Q166.08 6.99 166.08 6.27L166.08 6.27Q166.08 5.56 166.50 4.96Q166.91 4.35 167.67 4.00Q168.43 3.64 169.46 3.64L169.46 3.64ZM182.97 12.38L188.80 12.38L188.80 13.02L182.27 13.02L182.27 3.78L188.58 3.78L188.58 4.42L182.97 4.42L182.97 7.99L187.40 7.99L187.40 8.65L182.97 8.65L182.97 12.38ZM204.89 10.68Q204.50 11.86 203.53 12.51Q202.55 13.16 201.19 13.16L201.19 13.16Q199.93 13.16 198.98 12.58Q198.03 12.00 197.51 10.92Q196.99 9.84 196.99 8.40L196.99 8.40Q196.99 6.96 197.51 5.88Q198.03 4.80 198.98 4.22Q199.93 3.64 201.18 3.64L201.18 3.64Q203.95 3.64 204.76 5.92L204.76 5.92L204.08 6.24Q203.76 5.26 203.05 4.77Q202.34 4.28 201.22 4.28L201.22 4.28Q200.19 4.28 199.40 4.78Q198.60 5.28 198.17 6.21Q197.74 7.14 197.74 8.40L197.74 8.40Q197.74 9.66 198.16 10.59Q198.59 11.52 199.37 12.02Q200.14 12.52 201.19 12.52L201.19 12.52Q202.31 12.52 203.10 11.97Q203.88 11.42 204.19 10.42L204.19 10.42L204.89 10.68ZM220.89 13.02L220.07 13.02L217.42 9.02L217.38 9.02L214.65 9.02L214.65 13.02L213.95 13.02L213.95 3.78L217.38 3.78Q218.76 3.78 219.58 4.48Q220.40 5.18 220.40 6.40L220.40 6.40Q220.40 7.41 219.81 8.07Q219.23 8.74 218.20 8.93L218.20 8.93L220.89 13.02ZM214.65 4.42L214.65 8.36L217.36 8.36Q218.48 8.36 219.08 7.85Q219.67 7.35 219.67 6.40L219.67 6.40Q219.67 5.45 219.08 4.93Q218.48 4.42 217.36 4.42L217.36 4.42L214.65 4.42ZM230.61 12.38L236.45 12.38L236.45 13.02L229.91 13.02L229.91 3.78L236.22 3.78L236.22 4.42L230.61 4.42L230.61 7.99L235.05 7.99L235.05 8.65L230.61 8.65L230.61 12.38ZM251.78 3.78L251.78 4.42L248.40 4.42L248.40 13.02L247.70 13.02L247.70 4.42L244.33 4.42L244.33 3.78L251.78 3.78ZM263.09 3.64Q265.69 3.64 266.57 5.68L266.57 5.68L265.97 6.17Q265.62 5.18 264.93 4.73Q264.24 4.28 263.10 4.28L263.10 4.28Q262.29 4.28 261.69 4.54Q261.09 4.79 260.77 5.22Q260.46 5.66 260.46 6.20L260.46 6.20Q260.46 6.73 260.72 7.08Q260.99 7.43 261.63 7.68Q262.26 7.92 263.38 8.12L263.38 8.12Q265.19 8.43 265.94 9.02Q266.70 9.60 266.70 10.64L266.70 10.64Q266.70 11.38 266.27 11.96Q265.83 12.53 265.04 12.84Q264.25 13.16 263.23 13.16L263.23 13.16Q261.77 13.16 260.77 12.58Q259.77 12.00 259.41 10.95L259.41 10.95L260.02 10.47Q260.30 11.47 261.15 11.99Q262.00 12.52 263.24 12.52L263.24 12.52Q264.45 12.52 265.21 12.03Q265.97 11.54 265.97 10.68L265.97 10.68Q265.97 9.94 265.35 9.51Q264.73 9.07 263.19 8.81L263.19 8.81Q261.88 8.58 261.13 8.26Q260.37 7.94 260.04 7.46Q259.71 6.99 259.71 6.27L259.71 6.27Q259.71 5.56 260.13 4.96Q260.54 4.35 261.30 4.00Q262.07 3.64 263.09 3.64L263.09 3.64ZM290.14 3.64Q292.74 3.64 293.62 5.68L293.62 5.68L293.02 6.17Q292.67 5.18 291.98 4.73Q291.28 4.28 290.15 4.28L290.15 4.28Q289.34 4.28 288.74 4.54Q288.13 4.79 287.82 5.22Q287.50 5.66 287.50 6.20L287.50 6.20Q287.50 6.73 287.77 7.08Q288.04 7.43 288.67 7.68Q289.31 7.92 290.43 8.12L290.43 8.12Q292.24 8.43 292.99 9.02Q293.75 9.60 293.75 10.64L293.75 10.64Q293.75 11.38 293.31 11.96Q292.88 12.53 292.09 12.84Q291.30 13.16 290.28 13.16L290.28 13.16Q288.82 13.16 287.82 12.58Q286.82 12.00 286.45 10.95L286.45 10.95L287.07 10.47Q287.35 11.47 288.20 11.99Q289.04 12.52 290.29 12.52L290.29 12.52Q291.49 12.52 292.26 12.03Q293.02 11.54 293.02 10.68L293.02 10.68Q293.02 9.94 292.40 9.51Q291.77 9.07 290.23 8.81L290.23 8.81Q288.93 8.58 288.18 8.26Q287.42 7.94 287.09 7.46Q286.76 6.99 286.76 6.27L286.76 6.27Q286.76 5.56 287.18 4.96Q287.59 4.35 288.35 4.00Q289.11 3.64 290.14 3.64L290.14 3.64ZM303.65 12.38L309.48 12.38L309.48 13.02L302.95 13.02L302.95 3.78L309.26 3.78L309.26 4.42L303.65 4.42L303.65 7.99L308.08 7.99L308.08 8.65L303.65 8.65L303.65 12.38ZM325.57 10.68Q325.18 11.86 324.21 12.51Q323.23 13.16 321.87 13.16L321.87 13.16Q320.61 13.16 319.66 12.58Q318.71 12.00 318.19 10.92Q317.67 9.84 317.67 8.40L317.67 8.40Q317.67 6.96 318.19 5.88Q318.71 4.80 319.66 4.22Q320.61 3.64 321.86 3.64L321.86 3.64Q324.63 3.64 325.44 5.92L325.44 5.92L324.76 6.24Q324.44 5.26 323.73 4.77Q323.02 4.28 321.90 4.28L321.90 4.28Q320.87 4.28 320.08 4.78Q319.28 5.28 318.85 6.21Q318.42 7.14 318.42 8.40L318.42 8.40Q318.42 9.66 318.84 10.59Q319.27 11.52 320.05 12.02Q320.82 12.52 321.87 12.52L321.87 12.52Q322.99 12.52 323.78 11.97Q324.56 11.42 324.87 10.42L324.87 10.42L325.57 10.68ZM341.64 3.78L341.64 9.65Q341.64 11.35 340.72 12.26Q339.79 13.16 338.09 13.16L338.09 13.16Q336.38 13.16 335.45 12.26Q334.52 11.35 334.52 9.65L334.52 9.65L334.52 3.78L335.22 3.78L335.22 9.51Q335.22 10.99 335.94 11.75Q336.67 12.52 338.09 12.52L338.09 12.52Q339.49 12.52 340.21 11.75Q340.94 10.99 340.94 9.51L340.94 9.51L340.94 3.78L341.64 3.78ZM358.39 13.02L357.56 13.02L354.91 9.02L354.87 9.02L352.14 9.02L352.14 13.02L351.44 13.02L351.44 3.78L354.87 3.78Q356.26 3.78 357.08 4.48Q357.90 5.18 357.90 6.40L357.90 6.40Q357.90 7.41 357.31 8.07Q356.72 8.74 355.70 8.93L355.70 8.93L358.39 13.02ZM352.14 4.42L352.14 8.36L354.86 8.36Q355.98 8.36 356.57 7.85Q357.17 7.35 357.17 6.40L357.17 6.40Q357.17 5.45 356.57 4.93Q355.98 4.42 354.86 4.42L354.86 4.42L352.14 4.42ZM368.10 12.38L373.94 12.38L373.94 13.02L367.40 13.02L367.40 3.78L373.72 3.78L373.72 4.42L368.10 4.42L368.10 7.99L372.54 7.99L372.54 8.65L368.10 8.65L368.10 12.38ZM383.67 12.38L389.21 12.38L389.21 13.02L382.97 13.02L382.97 3.78L383.67 3.78L383.67 12.38ZM402.33 3.78L399.06 9.42L399.06 13.02L398.36 13.02L398.36 9.42L395.08 3.78L395.91 3.78L398.71 8.69L401.51 3.78L402.33 3.78Z"></path></g></svg>